{"title":"Silver Linings Playbook 2012 DVDSCR XVID AC3-BHRG","uid":8007640,"size":1444097804,"categoryP":"video","categoryS":"movies","magnet":"?xt=urn:btih:14902b8578a4dc089587e35e2f07fbc05a3fcae9&amp;dn=Silver+Linings+Playbook+2012+DVDSCR+XVID+AC3-BHRG&amp;tr=udp%3A%2F%2Ftracker.openbittorrent.com%3A80&amp;tr=udp%3A%2F%2Fopen.demonii.com%3A1337&amp;tr=udp%3A%2F%2Ftracker.coppersurfer.tk%3A6969&amp;tr=udp%3A%2F%2Fexodus.desync.com%3A6969","seeders":2,"leechers":0,"uploader":"HeroMaster","files":-1,"time":1357927912,"description":"Silver Linings Playbook 2012 DVDSCR XVID AC3-BHRG\n\n\nsource---EDAW2013 thx\n\n &lt;a href=&quot;\nhttp://www.imdb.com/title/tt1045658/&quot; rel=&quot;nofollow&quot; target=&quot;_NEW&quot;&gt;\nhttp://www.imdb.com/title/tt1045658/&lt;/a&gt;\n\n\nAfter a stint in a mental institution, former teacher Pat Solitano moves back in \nwith his parents and tries to reconcile with his ex-wife. Things get more \nchallenging when Pat meets Tiffany, a mysterious girl with problems of her own.\n\n\nFormat                                   : AVI\nFormat/Info                              : Audio Video Interleave\nFile size                                : 1.33 GiB\nDuration                                 : 2h 1mn\nOverall bit rate                         : 1 567 Kbps\nWriting library                          : VirtualDub build 30091/release\n\nVideo\nID                                       : 0\nFormat                                   : MPEG-4 Visual\nFormat profile                           : Advanced Simple@L5\nFormat settings, BVOP                    : 1\nFormat settings, QPel                    : No\nFormat settings, GMC                     : No warppoints\nFormat settings, Matrix                  : Default (H.263)\nMuxing mode                              : Packed bitstream\nCodec ID                                 : XVID\nCodec ID/Hint                            : XviD\nDuration                                 : 2h 1mn\nBit rate                                 : 1 299 Kbps\nWidth                                    : 720 pixels\nHeight                                   : 304 pixels\nDisplay aspect ratio                     : 2.35:1\nFrame rate                               : 29.970 fps\nColor space                              : YUV\nChroma subsampling                       : 4:2:0\nBit depth                                : 8 bits\nScan type                                : Progressive\nCompression mode                         : Lossy\nBits/(Pixel*Frame)                       : 0.198\nStream size                              : 1.11 GiB (83%)\nWriting library                          : XviD 1.2.1 (UTC 2008-12-04)\n\nAudio\nID                                       : 1\nFormat                                   : AC-3\nFormat/Info                              : Audio Coding 3\nMode extension                           : CM (complete main)\nFormat settings, Endianness              : Big\nCodec ID                                 : 2000\nDuration                                 : 2h 1mn\nBit rate mode                            : Constant\nBit rate                                 : 256 Kbps\nChannel(s)                               : 2 channels\nChannel positions                        : Front: L R\nSampling rate                            : 48.0 KHz\nBit depth                                : 16 bits\nCompression mode                         : Lossy\nStream size                              : 223 MiB (16%)\n\n\nPoster:\n\n &lt;a href=&quot;\nhttp://imgon.net/di-1GCE.jpg&quot; rel=&quot;nofollow&quot; target=&quot;_NEW&quot;&gt;\nhttp://imgon.net/di-1GCE.jpg&lt;/a&gt;\n\n\nScreenshots:\n\n &lt;a href=&quot;\nhttp://imgon.net/di-0GTZ.jpg&quot; rel=&quot;nofollow&quot; target=&quot;_NEW&quot;&gt;\nhttp://imgon.net/di-0GTZ.jpg&lt;/a&gt;\n\n\nSEED AND ENJOY!","torrent":{"xt":"urn:btih:14902b8578a4dc089587e35e2f07fbc05a3fcae9","amp;dn":"Silver+Linings+Playbook+2012+DVDSCR+XVID+AC3-BHRG","amp;tr":["udp%3A%2F%2Ftracker.openbittorrent.com%3A80","udp%3A%2F%2Fopen.demonii.com%3A1337","udp%3A%2F%2Ftracker.coppersurfer.tk%3A6969","udp%3A%2F%2Fexodus.desync.com%3A6969"],"infoHash":"14902b8578a4dc089587e35e2f07fbc05a3fcae9","infoHashBuffer":{"type":"Buffer","data":[20,144,43,133,120,164,220,8,149,135,227,94,47,7,251,192,90,63,202,233]},"announce":[],"urlList":[]}}